PathFileType	4	(X/Y/Z)	/Users/itak/Documents/Research/Walk-IL/dataset/trc/00002_00004.trc
DataRate	CameraRate	NumFrames	NumMarkers	Units	OrigDataRate	OrigDataStartFrame	OrigNumFrames
100.000000	100.000000	4	54	mm	100.000000	66	531
Frame#	Time	RPSI			LPSI			L3			STRN			T10			C7			CLAV			RBAK			LBAK			LSHO			LUPA			LAEL			LAOL			LWTS			LWPS			LFRA			LIFD			LHPS			LHTS			RSHO			RUPA			RAEL			RAOL			RWTS			RWPS			RFRA			RIFD			RHTS			RHPS			RBHD			LFHD			RFHD			LBHD			LHIP			RHIP			RASI			LASI			LKNE			LTHI			LANK			LTIP			LTOE			LMT1			LMT5			LHEE			RKNE			RTHI			RANK			RTIP			RTOE			RMT1			RMT5			RHEE			*53			
		X1	Y1	Z1	X2	Y2	Z2	X3	Y3	Z3	X4	Y4	Z4	X5	Y5	Z5	X6	Y6	Z6	X7	Y7	Z7	X8	Y8	Z8	X9	Y9	Z9	X10	Y10	Z10	X11	Y11	Z11	X12	Y12	Z12	X13	Y13	Z13	X14	Y14	Z14	X15	Y15	Z15	X16	Y16	Z16	X17	Y17	Z17	X18	Y18	Z18	X19	Y19	Z19	X20	Y20	Z20	X21	Y21	Z21	X22	Y22	Z22	X23	Y23	Z23	X24	Y24	Z24	X25	Y25	Z25	X26	Y26	Z26	X27	Y27	Z27	X28	Y28	Z28	X29	Y29	Z29	X30	Y30	Z30	X31	Y31	Z31	X32	Y32	Z32	X33	Y33	Z33	X34	Y34	Z34	X35	Y35	Z35	X36	Y36	Z36	X37	Y37	Z37	X38	Y38	Z38	X39	Y39	Z39	X40	Y40	Z40	X41	Y41	Z41	X42	Y42	Z42	X43	Y43	Z43	X44	Y44	Z44	X45	Y45	Z45	X46	Y46	Z46	X47	Y47	Z47	X48	Y48	Z48	X49	Y49	Z49	X50	Y50	Z50	X51	Y51	Z51	X52	Y52	Z52	X53	Y53	Z53	X54	Y54	Z54	

67	0.66	-1241.601196289062	1070.012329101562	-181.9963226318359	-1248.973754882812	1062.991333007812	-345.6908569335938	-1251.137084960938	1127.624755859375	-272.2926940917969	-1034.472412109375	1326.90625	-274.0097045898438	-1283.467163085938	1269.390869140625	-274.8827209472656	-1245.943237304688	1538.619506835938	-287.0293273925781	-1081.509155273438	1451.567138671875	-280.3411254882812	-1291.093627929688	1400.369873046875	-206.4719848632812	-1260.00146484375	1495.523681640625	-385.2983093261719	-1156.360107421875	1504.929565429688	-457.8985595703125	-1180.645874023438	1378.464233398438	-535.0750732421875	-1174.246948242188	1159.58056640625	-553.9755859375	-1233.936279296875	1147.963745117188	-466.6795959472656	-1084.233032226562	909.3248291015625	-489.2200012207031	-1158.5859375	892.55419921875	-533.6286010742188	-1158.799072265625	1043.693359375	-556.3200073242188	-1052.4765625	728.44091796875	-466.2457275390625	-1123.321899414062	804.4584350585938	-530.44921875	-1058.646118164062	818.1013793945312	-500.7583312988281	-1167.30712890625	1529.7900390625	-112.3948974609375	-1178.302368164062	1457.555541992188	-38.82821655273438	-1201.776123046875	1187.151489257812	-16.46406555175781	-1203.259399414062	1159.199584960938	-113.1149826049805	-1064.308227539062	932.4185791015625	-44.50519180297852	-1130.6865234375	916.3099975585938	19.1241397857666	-1185.861328125	1112.587768554688	-0.8433746099472046	-1043.037841796875	749.2666625976562	-59.35677719116211	-1028.36181640625	823.6502685546875	-27.36712455749512	-1085.900024414062	817.5784912109375	20.32475280761719	-1207.347290039062	1726.214721679688	-342.4342041015625	-1012.608947753906	1739.915283203125	-245.1248321533203	-1025.292358398438	1739.782470703125	-342.8690490722656	-1181.492797851562	1722.335693359375	-200.4516448974609	-1155.723876953125	962.3407592773438	-451.9329223632812	-1125.942749023438	966.2359008789062	-81.94872283935547	-1023.601501464844	997.9922485351562	-159.7533874511719	-1038.193115234375	1010.374938964844	-395.3534851074219	-1118.274169921875	517.3602294921875	-400.5430908203125	-1138.245239257812	653.7755737304688	-437.5242919921875	-1215.251708984375	42.68081665039062	-394.9225158691406	-1201.369018554688	288.1344604492188	-416.5583190917969	-997.8903198242188	40.96136474609375	-324.5647277832031	-1057.674194335938	49.91359329223633	-309.1119079589844	-1089.97265625	39.74067306518555	-411.1150512695312	-1286.713134765625	48.537353515625	-343.4447326660156	-1117.80029296875	528.8801879882812	-124.1899261474609	-1101.234008789062	797.5577392578125	-83.01564788818359	-1233.6220703125	48.63996887207031	-136.0737152099609	-1144.252685546875	406.0763549804688	-122.9977264404297	-1001.760131835938	45.06337738037109	-177.3756713867188	-1064.648681640625	50.08696365356445	-208.4056549072266	-1085.334106445312	45.70359039306641	-113.6226196289062	-1289.93701171875	48.00864410400391	-180.5875854492188	nan	nan	nan	
68	0.67	-1241.609375	1070.002563476562	-181.9167175292969	-1248.90771484375	1062.947021484375	-345.5744018554688	-1251.121215820312	1127.6201171875	-272.2279968261719	-1034.465209960938	1326.914794921875	-273.9576416015625	-1283.538208007812	1269.360595703125	-274.9049377441406	-1245.98046875	1538.590209960938	-287.0718688964844	-1081.52490234375	1451.561279296875	-280.3306884765625	-1291.146240234375	1400.346923828125	-206.5184173583984	-1260.021484375	1495.485961914062	-385.3211975097656	-1156.303588867188	1504.864379882812	-457.9210815429688	-1180.558837890625	1378.367309570312	-535.07177734375	-1174.037231445312	1159.468139648438	-553.8804931640625	-1233.839965820312	1147.879272460938	-466.6255187988281	-1084.212646484375	909.2725219726562	-489.13623046875	-1158.506469726562	892.4373168945312	-533.4917602539062	-1158.770141601562	1043.580932617188	-556.2340087890625	-1052.46240234375	728.3541870117188	-466.0400390625	-1123.329345703125	804.3519287109375	-530.2770385742188	-1058.587036132812	817.9973754882812	-500.5490112304688	-1167.436279296875	1529.812255859375	-112.4369354248047	-1178.3974609375	1457.584594726562	-38.8599967956543	-1201.701293945312	1187.152587890625	-16.48039817810059	-1203.16357421875	1159.193115234375	-113.1386260986328	-1064.0986328125	932.521484375	-44.53778457641602	-1130.413330078125	916.3341064453125	19.10538482666016	-1185.74169921875	1112.597534179688	-0.8609191179275513	-1042.730346679688	749.2911987304688	-59.34528350830078	-1028.02978515625	823.79736328125	-27.3293342590332	-1085.528686523438	817.669921875	20.35019683837891	-1206.56640625	1726.254638671875	-343.6243591308594	-1012.854309082031	1739.795776367188	-244.0568695068359	-1024.35009765625	1739.506103515625	-341.99462890625	-1182.280639648438	1722.576049804688	-201.2617797851562	-1155.65087890625	962.320556640625	-451.83203125	-1126.0244140625	966.2279663085938	-81.89743041992188	-1023.606689453125	997.9760131835938	-159.6302185058594	-1038.216918945312	1010.322692871094	-395.2541809082031	-1118.252807617188	517.3549194335938	-400.4491882324219	-1138.196044921875	653.7706909179688	-437.44091796875	-1215.247436523438	42.6773567199707	-394.9312744140625	-1201.36669921875	288.1366882324219	-416.5552368164062	-997.8951416015625	40.96089172363281	-324.5653381347656	-1057.678955078125	49.91116714477539	-309.1078796386719	-1089.96875	39.74148559570312	-411.1087646484375	-1286.7099609375	48.52593231201172	-343.4455871582031	-1117.878540039062	528.8818359375	-124.1476898193359	-1101.3447265625	797.5498657226562	-82.83428955078125	-1233.604125976562	48.60902786254883	-136.0871734619141	-1144.297729492188	406.0755310058594	-122.9673461914062	-1001.762023925781	45.06466674804688	-177.3767547607422	-1064.656127929688	50.09091186523438	-208.4032897949219	-1085.33447265625	45.7042236328125	-113.6239547729492	-1289.950073242188	47.99753952026367	-180.5790863037109	nan	nan	nan	
69	0.68	-1241.634033203125	1069.995239257812	-181.830322265625	-1248.87158203125	1062.91162109375	-345.4481506347656	-1251.122436523438	1127.62451171875	-272.160888671875	-1034.461791992188	1326.921752929688	-273.89501953125	-1283.612060546875	1269.339477539062	-274.9285583496094	-1246.005859375	1538.568481445312	-287.127197265625	-1081.537963867188	1451.554809570312	-280.3095397949219	-1291.207641601562	1400.332397460938	-206.5756530761719	-1260.022216796875	1495.445678710938	-385.3423461914062	-1156.229370117188	1504.800659179688	-457.9411315917969	-1180.437622070312	1378.27392578125	-535.0650024414062	-1173.800659179688	1159.358154296875	-553.7802734375	-1233.720092773438	1147.801391601562	-466.5721130371094	-1084.167358398438	909.219970703125	-489.0281982421875	-1158.42236328125	892.32421875	-533.34814453125	-1158.716064453125	1043.467041015625	-556.1404418945312	-1052.393188476562	728.2921142578125	-465.83349609375	-1123.30224609375	804.2404174804688	-530.0960693359375	-1058.505249023438	817.9063110351562	-500.345458984375	-1167.583374023438	1529.834716796875	-112.481315612793	-1178.514282226562	1457.617431640625	-38.89406204223633	-1201.661010742188	1187.154296875	-16.49734115600586	-1203.094848632812	1159.18896484375	-113.1612854003906	-1063.910400390625	932.6342163085938	-44.57468795776367	-1130.16259765625	916.3612670898438	19.08161163330078	-1185.66162109375	1112.605102539062	-0.8808284997940063	-1042.392822265625	749.3424682617188	-59.33263397216797	-1027.684326171875	823.9624633789062	-27.28474044799805	-1085.183349609375	817.7662963867188	20.35912132263184	-1205.771484375	1726.279174804688	-344.7582397460938	-1013.08740234375	1739.694213867188	-243.0055694580078	-1023.437255859375	1739.253662109375	-341.1043395996094	-1183.041625976562	1722.802612304688	-202.0515289306641	-1155.588745117188	962.3018798828125	-451.72314453125	-1126.092895507812	966.2198486328125	-81.81780242919922	-1023.633666992188	997.9531860351562	-159.4961700439453	-1038.252807617188	1010.271850585938	-395.1416320800781	-1118.2265625	517.3489990234375	-400.3561096191406	-1138.146240234375	653.76708984375	-437.3599548339844	-1215.241943359375	42.66997909545898	-394.9399719238281	-1201.364379882812	288.1416931152344	-416.5532531738281	-997.90087890625	40.96110153198242	-324.5660400390625	-1057.6865234375	49.90777969360352	-309.1045532226562	-1089.964965820312	39.74352264404297	-411.1037292480469	-1286.705200195312	48.5150260925293	-343.4470825195312	-1117.941772460938	528.8847045898438	-124.1023483276367	-1101.467407226562	797.5402221679688	-82.63397216796875	-1233.585205078125	48.57683181762695	-136.0966644287109	-1144.324340820312	406.0726928710938	-122.9254150390625	-1001.763671875	45.06554412841797	-177.3773040771484	-1064.660888671875	50.09428787231445	-208.4004058837891	-1085.334228515625	45.70461273193359	-113.6247024536133	-1289.963134765625	47.98317337036133	-180.5667266845703	nan	nan	nan	
70	0.6900000000000001	-1241.674926757812	1069.991577148438	-181.7400665283203	-1248.873901367188	1062.893676757812	-345.3183288574219	-1251.1396484375	1127.6376953125	-272.0934753417969	-1034.463134765625	1326.926391601562	-273.8212585449219	-1283.674438476562	1269.327392578125	-274.9477233886719	-1246.015258789062	1538.554321289062	-287.19873046875	-1081.549682617188	1451.54736328125	-280.2767028808594	-1291.274536132812	1400.3271484375	-206.6414489746094	-1259.999389648438	1495.400268554688	-385.3623046875	-1156.140502929688	1504.739379882812	-457.9589233398438	-1180.286010742188	1378.1845703125	-535.054443359375	-1173.560302734375	1159.252685546875	-553.6796875	-1233.579833984375	1147.729858398438	-466.5186157226562	-1084.092529296875	909.1682739257812	-488.8899536132812	-1158.333862304688	892.2173461914062	-533.1982421875	-1158.635864257812	1043.3544921875	-556.0390014648438	-1052.278930664062	728.2437133789062	-465.6190490722656	-1123.239990234375	804.1286010742188	-529.9064331054688	-1058.39892578125	817.8323364257812	-500.1460571289062	-1167.745239257812	1529.859985351562	-112.5275268554688	-1178.647216796875	1457.655395507812	-38.92748641967773	-1201.654174804688	1187.158203125	-16.51419067382812	-1203.05712890625	1159.189208984375	-113.1824264526367	-1063.742797851562	932.7569580078125	-44.61331558227539	-1129.93115234375	916.3932495117188	19.05514526367188	-1185.61474609375	1112.612670898438	-0.9007219076156616	-1042.020263671875	749.4318237304688	-59.32027816772461	-1027.334228515625	824.1396484375	-27.24384689331055	-1084.871704101562	817.8632202148438	20.34938049316406	-1204.9521484375	1726.289672851562	-345.8206787109375	-1013.305786132812	1739.605346679688	-241.9751739501953	-1022.563293457031	1739.02197265625	-340.1968994140625	-1183.766479492188	1723.015747070312	-202.8195953369141	-1155.535400390625	962.2850341796875	-451.6078491210938	-1126.139404296875	966.2141723632812	-81.70516967773438	-1023.68310546875	997.9240112304688	-159.3541412353516	-1038.293579101562	1010.226013183594	-395.0157470703125	-1118.1962890625	517.342529296875	-400.2667541503906	-1138.095336914062	653.764892578125	-437.2821044921875	-1215.235229492188	42.65859603881836	-394.9488525390625	-1201.360595703125	288.14794921875	-416.5526733398438	-997.9078369140625	40.96164703369141	-324.5662841796875	-1057.695556640625	49.90464782714844	-309.1015014648438	-1089.962036132812	39.74686431884766	-411.1003112792969	-1286.69970703125	48.50524139404297	-343.4499816894531	-1117.984497070312	528.8890991210938	-124.0547485351562	-1101.584594726562	797.5278930664062	-82.43295288085938	-1233.5673828125	48.54814910888672	-136.1002044677734	-1144.32666015625	406.0673217773438	-122.8712844848633	-1001.764892578125	45.06600189208984	-177.3776397705078	-1064.662231445312	50.09744644165039	-208.3970336914062	-1085.332885742188	45.70464324951172	-113.6243133544922	-1289.97314453125	47.96738815307617	-180.5525512695312	nan	nan	nan	
